<?xml version="1.0" encoding="utf-8"?>
<svg xmlns="http://www.w3.org/2000/svg" xmlns:xlink="http://www.w3.org/1999/xlink" width="600" height="400" viewBox="0 0 2400 1600">
<defs>
  <clipPath id="clip030">
    <rect x="0" y="0" width="2400" height="1600"/>
  </clipPath>
</defs>
<path clip-path="url(#clip030)" d="
M0 1600 L2400 1600 L2400 0 L0 0  Z
  " fill="#ffffff" fill-rule="evenodd" fill-opacity="1"/>
<defs>
  <clipPath id="clip031">
    <rect x="480" y="0" width="1681" height="1600"/>
  </clipPath>
</defs>
<defs>
  <clipPath id="clip032">
    <rect x="284" y="123" width="2069" height="1253"/>
  </clipPath>
</defs>
<path clip-path="url(#clip030)" d="
M284.909 1375.66 L2352.76 1375.66 L2352.76 123.472 L284.909 123.472  Z
  " fill="#ffffff" fill-rule="evenodd" fill-opacity="1"/>
<polyline clip-path="url(#clip032)" style="stroke:#000000; stroke-linecap:butt; stroke-linejoin:round; stroke-width:2; stroke-opacity:0.1; fill:none" points="
  284.909,1375.66 284.909,123.472 
  "/>
<polyline clip-path="url(#clip032)" style="stroke:#000000; stroke-linecap:butt; stroke-linejoin:round; stroke-width:2; stroke-opacity:0.1; fill:none" points="
  801.871,1375.66 801.871,123.472 
  "/>
<polyline clip-path="url(#clip032)" style="stroke:#000000; stroke-linecap:butt; stroke-linejoin:round; stroke-width:2; stroke-opacity:0.1; fill:none" points="
  1318.83,1375.66 1318.83,123.472 
  "/>
<polyline clip-path="url(#clip032)" style="stroke:#000000; stroke-linecap:butt; stroke-linejoin:round; stroke-width:2; stroke-opacity:0.1; fill:none" points="
  1835.79,1375.66 1835.79,123.472 
  "/>
<polyline clip-path="url(#clip032)" style="stroke:#000000; stroke-linecap:butt; stroke-linejoin:round; stroke-width:2; stroke-opacity:0.1; fill:none" points="
  2352.76,1375.66 2352.76,123.472 
  "/>
<polyline clip-path="url(#clip030)" style="stroke:#000000; stroke-linecap:butt; stroke-linejoin:round; stroke-width:4; stroke-opacity:1; fill:none" points="
  284.909,1375.66 2352.76,1375.66 
  "/>
<polyline clip-path="url(#clip030)" style="stroke:#000000; stroke-linecap:butt; stroke-linejoin:round; stroke-width:4; stroke-opacity:1; fill:none" points="
  284.909,1375.66 284.909,1356.76 
  "/>
<polyline clip-path="url(#clip030)" style="stroke:#000000; stroke-linecap:butt; stroke-linejoin:round; stroke-width:4; stroke-opacity:1; fill:none" points="
  801.871,1375.66 801.871,1356.76 
  "/>
<polyline clip-path="url(#clip030)" style="stroke:#000000; stroke-linecap:butt; stroke-linejoin:round; stroke-width:4; stroke-opacity:1; fill:none" points="
  1318.83,1375.66 1318.83,1356.76 
  "/>
<polyline clip-path="url(#clip030)" style="stroke:#000000; stroke-linecap:butt; stroke-linejoin:round; stroke-width:4; stroke-opacity:1; fill:none" points="
  1835.79,1375.66 1835.79,1356.76 
  "/>
<polyline clip-path="url(#clip030)" style="stroke:#000000; stroke-linecap:butt; stroke-linejoin:round; stroke-width:4; stroke-opacity:1; fill:none" points="
  2352.76,1375.66 2352.76,1356.76 
  "/>
<path clip-path="url(#clip030)" d="M284.909 1412.44 Q279.493 1412.44 276.75 1417.79 Q274.041 1423.1 274.041 1433.79 Q274.041 1444.45 276.75 1449.8 Q279.493 1455.11 284.909 1455.11 Q290.361 1455.11 293.069 1449.8 Q295.812 1444.45 295.812 1433.79 Q295.812 1423.1 293.069 1417.79 Q290.361 1412.44 284.909 1412.44 M284.909 1406.88 Q293.625 1406.88 298.208 1413.79 Q302.826 1420.67 302.826 1433.79 Q302.826 1446.88 298.208 1453.79 Q293.625 1460.67 284.909 1460.67 Q276.194 1460.67 271.576 1453.79 Q266.993 1446.88 266.993 1433.79 Q266.993 1420.67 271.576 1413.79 Q276.194 1406.88 284.909 1406.88 Z" fill="#000000" fill-rule="evenodd" fill-opacity="1" /><path clip-path="url(#clip030)" d="M787.288 1407.82 L814.822 1407.82 L814.822 1413.72 L793.711 1413.72 L793.711 1426.43 Q795.239 1425.91 796.767 1425.67 Q798.295 1425.39 799.822 1425.39 Q808.503 1425.39 813.572 1430.15 Q818.642 1434.9 818.642 1443.03 Q818.642 1451.4 813.433 1456.05 Q808.225 1460.67 798.746 1460.67 Q795.482 1460.67 792.079 1460.11 Q788.711 1459.56 785.1 1458.44 L785.1 1451.4 Q788.225 1453.1 791.559 1453.93 Q794.892 1454.76 798.607 1454.76 Q804.614 1454.76 808.121 1451.6 Q811.628 1448.44 811.628 1443.03 Q811.628 1437.61 808.121 1434.45 Q804.614 1431.29 798.607 1431.29 Q795.795 1431.29 792.982 1431.92 Q790.204 1432.54 787.288 1433.86 L787.288 1407.82 Z" fill="#000000" fill-rule="evenodd" fill-opacity="1" /><path clip-path="url(#clip030)" d="M1280.86 1453.76 L1292.32 1453.76 L1292.32 1414.21 L1279.86 1416.71 L1279.86 1410.32 L1292.25 1407.82 L1299.27 1407.82 L1299.27 1453.76 L1310.73 1453.76 L1310.73 1459.66 L1280.86 1459.66 L1280.86 1453.76 Z" fill="#000000" fill-rule="evenodd" fill-opacity="1" /><path clip-path="url(#clip030)" d="M1339.89 1412.44 Q1334.47 1412.44 1331.73 1417.79 Q1329.02 1423.1 1329.02 1433.79 Q1329.02 1444.45 1331.73 1449.8 Q1334.47 1455.11 1339.89 1455.11 Q1345.34 1455.11 1348.05 1449.8 Q1350.79 1444.45 1350.79 1433.79 Q1350.79 1423.1 1348.05 1417.79 Q1345.34 1412.44 1339.89 1412.44 M1339.89 1406.88 Q1348.61 1406.88 1353.19 1413.79 Q1357.81 1420.67 1357.81 1433.79 Q1357.81 1446.88 1353.19 1453.79 Q1348.61 1460.67 1339.89 1460.67 Q1331.18 1460.67 1326.56 1453.79 Q1321.97 1446.88 1321.97 1433.79 Q1321.97 1420.67 1326.56 1413.79 Q1331.18 1406.88 1339.89 1406.88 Z" fill="#000000" fill-rule="evenodd" fill-opacity="1" /><path clip-path="url(#clip030)" d="M1798.57 1453.76 L1810.03 1453.76 L1810.03 1414.21 L1797.57 1416.71 L1797.57 1410.32 L1809.96 1407.82 L1816.97 1407.82 L1816.97 1453.76 L1828.43 1453.76 L1828.43 1459.66 L1798.57 1459.66 L1798.57 1453.76 Z" fill="#000000" fill-rule="evenodd" fill-opacity="1" /><path clip-path="url(#clip030)" d="M1842.67 1407.82 L1870.2 1407.82 L1870.2 1413.72 L1849.09 1413.72 L1849.09 1426.43 Q1850.62 1425.91 1852.15 1425.67 Q1853.68 1425.39 1855.2 1425.39 Q1863.88 1425.39 1868.95 1430.15 Q1874.02 1434.9 1874.02 1443.03 Q1874.02 1451.4 1868.81 1456.05 Q1863.61 1460.67 1854.13 1460.67 Q1850.86 1460.67 1847.46 1460.11 Q1844.09 1459.56 1840.48 1458.44 L1840.48 1451.4 Q1843.61 1453.1 1846.94 1453.93 Q1850.27 1454.76 1853.99 1454.76 Q1860 1454.76 1863.5 1451.6 Q1867.01 1448.44 1867.01 1443.03 Q1867.01 1437.61 1863.5 1434.45 Q1860 1431.29 1853.99 1431.29 Q1851.18 1431.29 1848.36 1431.92 Q1845.59 1432.54 1842.67 1433.86 L1842.67 1407.82 Z" fill="#000000" fill-rule="evenodd" fill-opacity="1" /><path clip-path="url(#clip030)" d="M2320.92 1453.76 L2345.39 1453.76 L2345.39 1459.66 L2312.48 1459.66 L2312.48 1453.76 Q2316.47 1449.63 2323.35 1442.68 Q2330.26 1435.7 2332.03 1433.69 Q2335.39 1429.9 2336.71 1427.3 Q2338.07 1424.66 2338.07 1422.13 Q2338.07 1417.99 2335.15 1415.39 Q2332.27 1412.79 2327.62 1412.79 Q2324.32 1412.79 2320.64 1413.93 Q2316.99 1415.08 2312.83 1417.4 L2312.83 1410.32 Q2317.06 1408.62 2320.74 1407.75 Q2324.42 1406.88 2327.48 1406.88 Q2335.53 1406.88 2340.33 1410.91 Q2345.12 1414.94 2345.12 1421.67 Q2345.12 1424.87 2343.9 1427.75 Q2342.72 1430.6 2339.56 1434.49 Q2338.69 1435.49 2334.04 1440.32 Q2329.39 1445.11 2320.92 1453.76 Z" fill="#000000" fill-rule="evenodd" fill-opacity="1" /><path clip-path="url(#clip030)" d="M2375.12 1412.44 Q2369.7 1412.44 2366.96 1417.79 Q2364.25 1423.1 2364.25 1433.79 Q2364.25 1444.45 2366.96 1449.8 Q2369.7 1455.11 2375.12 1455.11 Q2380.57 1455.11 2383.28 1449.8 Q2386.02 1444.45 2386.02 1433.79 Q2386.02 1423.1 2383.28 1417.79 Q2380.57 1412.44 2375.12 1412.44 M2375.12 1406.88 Q2383.83 1406.88 2388.42 1413.79 Q2393.03 1420.67 2393.03 1433.79 Q2393.03 1446.88 2388.42 1453.79 Q2383.83 1460.67 2375.12 1460.67 Q2366.4 1460.67 2361.78 1453.79 Q2357.2 1446.88 2357.2 1433.79 Q2357.2 1420.67 2361.78 1413.79 Q2366.4 1406.88 2375.12 1406.88 Z" fill="#000000" fill-rule="evenodd" fill-opacity="1" /><path clip-path="url(#clip030)" d="M1231.3 1517.47 Q1231.3 1518.95 1230.62 1519.32 Q1229.93 1519.63 1228.03 1519.63 L1217.92 1519.63 L1209.91 1551.46 Q1209.27 1554.26 1209.27 1556.63 Q1209.27 1559.26 1210.06 1560.42 Q1210.91 1561.58 1212.65 1561.58 Q1216.07 1561.58 1219.76 1558.47 Q1223.5 1555.36 1226.66 1547.77 Q1227.09 1546.77 1227.3 1546.56 Q1227.56 1546.3 1228.24 1546.3 Q1229.56 1546.3 1229.56 1547.35 Q1229.56 1547.72 1228.82 1549.41 Q1228.14 1551.1 1226.61 1553.57 Q1225.14 1556.05 1223.19 1558.37 Q1221.29 1560.69 1218.39 1562.37 Q1215.49 1564.01 1212.38 1564.01 Q1208.01 1564.01 1205.21 1561.21 Q1202.47 1558.42 1202.47 1554.05 Q1202.47 1552.62 1203.58 1548.09 Q1204.69 1543.51 1210.7 1519.63 L1201.16 1519.63 Q1199.84 1519.63 1199.31 1519.58 Q1198.84 1519.53 1198.47 1519.26 Q1198.15 1518.95 1198.15 1518.32 Q1198.15 1517.31 1198.57 1516.89 Q1199 1516.42 1199.52 1516.37 Q1200.1 1516.26 1201.42 1516.26 L1211.54 1516.26 L1215.75 1499.13 Q1216.18 1497.45 1217.23 1496.5 Q1218.34 1495.5 1218.97 1495.39 Q1219.6 1495.23 1220.08 1495.23 Q1221.5 1495.23 1222.34 1496.02 Q1223.19 1496.76 1223.19 1498.13 Q1223.19 1498.87 1218.76 1516.26 L1228.24 1516.26 Q1229.46 1516.26 1229.93 1516.31 Q1230.46 1516.37 1230.88 1516.63 Q1231.3 1516.89 1231.3 1517.47 Z" fill="#000000" fill-rule="evenodd" fill-opacity="1" /><path clip-path="url(#clip030)" d="M1325.9 1490.38 Q1325.9 1491.39 1325.48 1491.86 Q1325.06 1492.28 1324.58 1492.39 Q1324.11 1492.44 1323 1492.44 Q1320.73 1492.44 1319.52 1492.6 Q1318.31 1492.76 1317.57 1493.44 Q1316.83 1494.07 1316.57 1494.71 Q1316.36 1495.34 1315.99 1496.97 L1303.34 1547.35 Q1301.39 1555.1 1294.33 1560.16 Q1287.27 1565.17 1279.52 1565.17 Q1273.2 1565.17 1269.19 1561.85 Q1265.24 1558.47 1265.24 1553.41 Q1265.24 1550.83 1266.08 1548.99 Q1266.93 1547.14 1268.19 1546.3 Q1269.46 1545.46 1270.51 1545.14 Q1271.62 1544.77 1272.51 1544.77 Q1274.25 1544.77 1275.73 1545.88 Q1277.26 1546.98 1277.26 1549.3 Q1277.26 1551.89 1275.25 1554.05 Q1273.25 1556.21 1270.25 1556.21 Q1269.25 1556.21 1268.93 1556.1 Q1269.72 1558.68 1271.78 1560.32 Q1273.83 1561.9 1275.62 1562.37 Q1277.47 1562.79 1279.21 1562.79 Q1283.74 1562.79 1288.32 1558.42 Q1292.91 1554.05 1294.75 1546.62 L1307.14 1497.08 Q1307.56 1495.39 1307.56 1494.81 Q1307.56 1493.7 1306.87 1493.34 Q1306.24 1492.91 1304.24 1492.65 Q1301.55 1492.44 1297.97 1492.44 Q1296.7 1492.44 1296.18 1492.44 Q1295.65 1492.39 1295.12 1492.28 Q1294.6 1492.18 1294.44 1491.97 Q1294.28 1491.7 1294.28 1491.23 Q1294.28 1490.23 1294.7 1489.75 Q1295.12 1489.22 1295.49 1489.17 Q1295.86 1489.07 1296.55 1489.07 L1312.41 1489.38 Q1313.78 1489.38 1318.42 1489.22 Q1323.05 1489.07 1324.42 1489.07 Q1325.9 1489.07 1325.9 1490.38 Z" fill="#000000" fill-rule="evenodd" fill-opacity="1" /><path clip-path="url(#clip030)" d="M1324.53 1588.25 Q1324.53 1587.72 1324.95 1586.56 L1363.06 1484.75 Q1363.06 1484.64 1363.32 1484.06 Q1363.58 1483.48 1363.74 1483.11 Q1363.9 1482.69 1364.22 1482.37 Q1364.58 1482.06 1365.01 1482.06 Q1366.06 1482.06 1366.06 1483.37 Q1366.06 1483.48 1365.74 1484.75 L1327.54 1586.67 Q1326.9 1588.51 1326.48 1589.04 Q1326.11 1589.57 1325.48 1589.57 Q1324.53 1589.57 1324.53 1588.25 Z" fill="#000000" fill-rule="evenodd" fill-opacity="1" /><path clip-path="url(#clip030)" d="M1430.94 1547.35 Q1430.94 1547.77 1430.47 1549.41 Q1429.99 1551.04 1428.83 1553.57 Q1427.73 1556.1 1426.2 1558.42 Q1424.67 1560.69 1422.14 1562.37 Q1419.66 1564.01 1416.82 1564.01 Q1413.02 1564.01 1410.49 1561.48 Q1407.96 1558.95 1407.96 1555.15 Q1407.96 1554.63 1408.02 1554.1 Q1408.07 1553.57 1408.12 1553.26 Q1408.17 1552.89 1408.33 1552.31 Q1408.54 1551.67 1408.6 1551.41 Q1408.7 1551.15 1408.97 1550.36 Q1409.28 1549.51 1409.39 1549.2 Q1416.08 1532.12 1416.08 1525.01 Q1416.08 1517.47 1410.23 1517.47 Q1405.01 1517.47 1399.85 1521.27 Q1397.48 1523.16 1395.21 1526.54 Q1392.94 1529.91 1392.52 1531.17 Q1392.05 1533.91 1391.36 1536.02 Q1391.05 1537.5 1389.52 1543.24 L1387.15 1552.99 L1385.09 1561.16 Q1384.67 1562.32 1383.51 1563.16 Q1382.35 1564.01 1381.09 1564.01 Q1380.03 1564.01 1378.98 1563.27 Q1377.98 1562.58 1377.98 1560.95 Q1377.98 1560.11 1378.4 1558.58 L1389.52 1514.42 L1381.09 1519.63 Q1380.66 1519.84 1380.35 1519.84 Q1379.87 1519.84 1379.45 1519.47 Q1379.03 1519.05 1379.03 1518.53 Q1379.03 1517.89 1379.66 1517.47 L1390.36 1510.88 L1394.05 1496.39 L1394.37 1494.28 Q1394.37 1493.65 1394.1 1493.34 Q1393.89 1492.97 1392.63 1492.7 Q1391.42 1492.44 1388.99 1492.44 Q1387.99 1492.44 1387.52 1492.39 Q1387.09 1492.33 1386.73 1492.07 Q1386.36 1491.75 1386.36 1491.12 Q1386.36 1490.23 1386.73 1489.75 Q1387.15 1489.22 1387.46 1489.12 Q1387.78 1489.01 1388.41 1488.96 Q1389.31 1488.91 1392.31 1488.64 Q1395.32 1488.33 1397.9 1488.12 Q1400.48 1487.91 1401.59 1487.91 Q1402.22 1487.91 1402.54 1488.22 Q1402.9 1488.49 1402.96 1488.8 L1403.01 1489.07 L1398.9 1505.72 L1415.08 1495.86 Q1415.29 1495.65 1415.71 1495.65 Q1416.18 1495.65 1416.61 1496.08 Q1417.03 1496.44 1417.03 1496.97 Q1417.03 1497.71 1416.4 1498.03 L1398.06 1509.25 L1394.58 1523.37 Q1401.27 1515.1 1410.55 1515.1 Q1416.55 1515.1 1419.77 1518.21 Q1422.98 1521.27 1422.98 1526.64 Q1422.98 1532.81 1416.4 1550.36 Q1414.45 1555.26 1414.45 1558.05 Q1414.45 1559.9 1415.03 1560.74 Q1415.66 1561.58 1417.03 1561.58 Q1419.14 1561.58 1420.98 1560.37 Q1422.88 1559.11 1424.2 1557.05 Q1425.51 1554.94 1426.41 1552.83 Q1427.36 1550.67 1428.04 1548.25 Q1428.46 1546.93 1428.67 1546.62 Q1428.94 1546.3 1429.68 1546.3 Q1430.94 1546.3 1430.94 1547.35 Z" fill="#000000" fill-rule="evenodd" fill-opacity="1" /><polyline clip-path="url(#clip032)" style="stroke:#000000; stroke-linecap:butt; stroke-linejoin:round; stroke-width:2; stroke-opacity:0.1; fill:none" points="
  284.909,1375.66 2352.76,1375.66 
  "/>
<polyline clip-path="url(#clip032)" style="stroke:#000000; stroke-linecap:butt; stroke-linejoin:round; stroke-width:2; stroke-opacity:0.1; fill:none" points="
  284.909,1125.22 2352.76,1125.22 
  "/>
<polyline clip-path="url(#clip032)" style="stroke:#000000; stroke-linecap:butt; stroke-linejoin:round; stroke-width:2; stroke-opacity:0.1; fill:none" points="
  284.909,874.785 2352.76,874.785 
  "/>
<polyline clip-path="url(#clip032)" style="stroke:#000000; stroke-linecap:butt; stroke-linejoin:round; stroke-width:2; stroke-opacity:0.1; fill:none" points="
  284.909,624.347 2352.76,624.347 
  "/>
<polyline clip-path="url(#clip032)" style="stroke:#000000; stroke-linecap:butt; stroke-linejoin:round; stroke-width:2; stroke-opacity:0.1; fill:none" points="
  284.909,373.91 2352.76,373.91 
  "/>
<polyline clip-path="url(#clip032)" style="stroke:#000000; stroke-linecap:butt; stroke-linejoin:round; stroke-width:2; stroke-opacity:0.1; fill:none" points="
  284.909,123.472 2352.76,123.472 
  "/>
<polyline clip-path="url(#clip030)" style="stroke:#000000; stroke-linecap:butt; stroke-linejoin:round; stroke-width:4; stroke-opacity:1; fill:none" points="
  284.909,1375.66 284.909,123.472 
  "/>
<polyline clip-path="url(#clip030)" style="stroke:#000000; stroke-linecap:butt; stroke-linejoin:round; stroke-width:4; stroke-opacity:1; fill:none" points="
  284.909,1375.66 303.807,1375.66 
  "/>
<polyline clip-path="url(#clip030)" style="stroke:#000000; stroke-linecap:butt; stroke-linejoin:round; stroke-width:4; stroke-opacity:1; fill:none" points="
  284.909,1125.22 303.807,1125.22 
  "/>
<polyline clip-path="url(#clip030)" style="stroke:#000000; stroke-linecap:butt; stroke-linejoin:round; stroke-width:4; stroke-opacity:1; fill:none" points="
  284.909,874.785 303.807,874.785 
  "/>
<polyline clip-path="url(#clip030)" style="stroke:#000000; stroke-linecap:butt; stroke-linejoin:round; stroke-width:4; stroke-opacity:1; fill:none" points="
  284.909,624.347 303.807,624.347 
  "/>
<polyline clip-path="url(#clip030)" style="stroke:#000000; stroke-linecap:butt; stroke-linejoin:round; stroke-width:4; stroke-opacity:1; fill:none" points="
  284.909,373.91 303.807,373.91 
  "/>
<polyline clip-path="url(#clip030)" style="stroke:#000000; stroke-linecap:butt; stroke-linejoin:round; stroke-width:4; stroke-opacity:1; fill:none" points="
  284.909,123.472 303.807,123.472 
  "/>
<path clip-path="url(#clip030)" d="M163.146 1354.36 Q157.729 1354.36 154.986 1359.71 Q152.278 1365.02 152.278 1375.71 Q152.278 1386.37 154.986 1391.72 Q157.729 1397.03 163.146 1397.03 Q168.597 1397.03 171.306 1391.72 Q174.049 1386.37 174.049 1375.71 Q174.049 1365.02 171.306 1359.71 Q168.597 1354.36 163.146 1354.36 M163.146 1348.8 Q171.861 1348.8 176.444 1355.71 Q181.062 1362.59 181.062 1375.71 Q181.062 1388.8 176.444 1395.71 Q171.861 1402.59 163.146 1402.59 Q154.431 1402.59 149.813 1395.71 Q145.229 1388.8 145.229 1375.71 Q145.229 1362.59 149.813 1355.71 Q154.431 1348.8 163.146 1348.8 Z" fill="#000000" fill-rule="evenodd" fill-opacity="1" /><path clip-path="url(#clip030)" d="M193.389 1392.76 L200.715 1392.76 L200.715 1401.58 L193.389 1401.58 L193.389 1392.76 Z" fill="#000000" fill-rule="evenodd" fill-opacity="1" /><path clip-path="url(#clip030)" d="M230.993 1354.36 Q225.576 1354.36 222.833 1359.71 Q220.125 1365.02 220.125 1375.71 Q220.125 1386.37 222.833 1391.72 Q225.576 1397.03 230.993 1397.03 Q236.444 1397.03 239.152 1391.72 Q241.895 1386.37 241.895 1375.71 Q241.895 1365.02 239.152 1359.71 Q236.444 1354.36 230.993 1354.36 M230.993 1348.8 Q239.708 1348.8 244.291 1355.71 Q248.909 1362.59 248.909 1375.71 Q248.909 1388.8 244.291 1395.71 Q239.708 1402.59 230.993 1402.59 Q222.278 1402.59 217.659 1395.71 Q213.076 1388.8 213.076 1375.71 Q213.076 1362.59 217.659 1355.71 Q222.278 1348.8 230.993 1348.8 Z" fill="#000000" fill-rule="evenodd" fill-opacity="1" /><path clip-path="url(#clip030)" d="M165.542 1103.92 Q160.125 1103.92 157.382 1109.27 Q154.674 1114.58 154.674 1125.27 Q154.674 1135.93 157.382 1141.28 Q160.125 1146.59 165.542 1146.59 Q170.993 1146.59 173.701 1141.28 Q176.444 1135.93 176.444 1125.27 Q176.444 1114.58 173.701 1109.27 Q170.993 1103.92 165.542 1103.92 M165.542 1098.36 Q174.257 1098.36 178.84 1105.27 Q183.458 1112.15 183.458 1125.27 Q183.458 1138.36 178.84 1145.27 Q174.257 1152.15 165.542 1152.15 Q156.826 1152.15 152.208 1145.27 Q147.625 1138.36 147.625 1125.27 Q147.625 1112.15 152.208 1105.27 Q156.826 1098.36 165.542 1098.36 Z" fill="#000000" fill-rule="evenodd" fill-opacity="1" /><path clip-path="url(#clip030)" d="M195.785 1142.32 L203.111 1142.32 L203.111 1151.14 L195.785 1151.14 L195.785 1142.32 Z" fill="#000000" fill-rule="evenodd" fill-opacity="1" /><path clip-path="url(#clip030)" d="M224.43 1145.24 L248.909 1145.24 L248.909 1151.14 L215.993 1151.14 L215.993 1145.24 Q219.986 1141.11 226.861 1134.16 Q233.771 1127.18 235.541 1125.17 Q238.909 1121.39 240.229 1118.78 Q241.583 1116.14 241.583 1113.61 Q241.583 1109.48 238.666 1106.87 Q235.784 1104.27 231.132 1104.27 Q227.833 1104.27 224.153 1105.41 Q220.507 1106.56 216.34 1108.89 L216.34 1101.8 Q220.576 1100.1 224.257 1099.23 Q227.937 1098.36 230.993 1098.36 Q239.048 1098.36 243.84 1102.39 Q248.632 1106.42 248.632 1113.16 Q248.632 1116.35 247.416 1119.23 Q246.236 1122.08 243.076 1125.97 Q242.208 1126.98 237.555 1131.8 Q232.902 1136.59 224.43 1145.24 Z" fill="#000000" fill-rule="evenodd" fill-opacity="1" /><path clip-path="url(#clip030)" d="M162.417 853.483 Q157 853.483 154.257 858.83 Q151.549 864.142 151.549 874.837 Q151.549 885.497 154.257 890.844 Q157 896.156 162.417 896.156 Q167.868 896.156 170.576 890.844 Q173.319 885.497 173.319 874.837 Q173.319 864.142 170.576 858.83 Q167.868 853.483 162.417 853.483 M162.417 847.927 Q171.132 847.927 175.715 854.837 Q180.333 861.712 180.333 874.837 Q180.333 887.927 175.715 894.837 Q171.132 901.712 162.417 901.712 Q153.701 901.712 149.083 894.837 Q144.5 887.927 144.5 874.837 Q144.5 861.712 149.083 854.837 Q153.701 847.927 162.417 847.927 Z" fill="#000000" fill-rule="evenodd" fill-opacity="1" /><path clip-path="url(#clip030)" d="M192.66 891.885 L199.986 891.885 L199.986 900.705 L192.66 900.705 L192.66 891.885 Z" fill="#000000" fill-rule="evenodd" fill-opacity="1" /><path clip-path="url(#clip030)" d="M234.534 854.976 L216.826 882.649 L234.534 882.649 L234.534 854.976 M232.694 848.865 L241.514 848.865 L241.514 882.649 L248.909 882.649 L248.909 888.483 L241.514 888.483 L241.514 900.705 L234.534 900.705 L234.534 888.483 L211.132 888.483 L211.132 881.712 L232.694 848.865 Z" fill="#000000" fill-rule="evenodd" fill-opacity="1" /><path clip-path="url(#clip030)" d="M162.903 603.045 Q157.486 603.045 154.743 608.392 Q152.035 613.705 152.035 624.399 Q152.035 635.059 154.743 640.406 Q157.486 645.719 162.903 645.719 Q168.354 645.719 171.063 640.406 Q173.806 635.059 173.806 624.399 Q173.806 613.705 171.063 608.392 Q168.354 603.045 162.903 603.045 M162.903 597.49 Q171.618 597.49 176.201 604.399 Q180.819 611.274 180.819 624.399 Q180.819 637.49 176.201 644.399 Q171.618 651.274 162.903 651.274 Q154.188 651.274 149.57 644.399 Q144.986 637.49 144.986 624.399 Q144.986 611.274 149.57 604.399 Q154.188 597.49 162.903 597.49 Z" fill="#000000" fill-rule="evenodd" fill-opacity="1" /><path clip-path="url(#clip030)" d="M193.146 641.448 L200.472 641.448 L200.472 650.267 L193.146 650.267 L193.146 641.448 Z" fill="#000000" fill-rule="evenodd" fill-opacity="1" /><path clip-path="url(#clip030)" d="M231.618 621.552 Q226.896 621.552 224.118 624.781 Q221.375 628.01 221.375 633.635 Q221.375 639.226 224.118 642.489 Q226.896 645.719 231.618 645.719 Q236.34 645.719 239.083 642.489 Q241.861 639.226 241.861 633.635 Q241.861 628.01 239.083 624.781 Q236.34 621.552 231.618 621.552 M245.541 599.573 L245.541 605.962 Q242.902 604.712 240.194 604.052 Q237.52 603.392 234.882 603.392 Q227.937 603.392 224.257 608.08 Q220.611 612.767 220.09 622.247 Q222.139 619.226 225.229 617.628 Q228.319 615.997 232.034 615.997 Q239.847 615.997 244.361 620.753 Q248.909 625.476 248.909 633.635 Q248.909 641.621 244.187 646.448 Q239.465 651.274 231.618 651.274 Q222.625 651.274 217.868 644.399 Q213.111 637.49 213.111 624.399 Q213.111 612.108 218.944 604.816 Q224.778 597.49 234.604 597.49 Q237.243 597.49 239.916 598.011 Q242.625 598.531 245.541 599.573 Z" fill="#000000" fill-rule="evenodd" fill-opacity="1" /><path clip-path="url(#clip030)" d="M163.285 352.608 Q157.868 352.608 155.125 357.955 Q152.417 363.267 152.417 373.962 Q152.417 384.621 155.125 389.969 Q157.868 395.281 163.285 395.281 Q168.736 395.281 171.444 389.969 Q174.187 384.621 174.187 373.962 Q174.187 363.267 171.444 357.955 Q168.736 352.608 163.285 352.608 M163.285 347.052 Q172 347.052 176.583 353.962 Q181.201 360.837 181.201 373.962 Q181.201 387.052 176.583 393.962 Q172 400.837 163.285 400.837 Q154.57 400.837 149.952 393.962 Q145.368 387.052 145.368 373.962 Q145.368 360.837 149.952 353.962 Q154.57 347.052 163.285 347.052 Z" fill="#000000" fill-rule="evenodd" fill-opacity="1" /><path clip-path="url(#clip030)" d="M193.528 391.01 L200.854 391.01 L200.854 399.83 L193.528 399.83 L193.528 391.01 Z" fill="#000000" fill-rule="evenodd" fill-opacity="1" /><path clip-path="url(#clip030)" d="M231.132 375.212 Q226.132 375.212 223.25 377.885 Q220.403 380.559 220.403 385.246 Q220.403 389.934 223.25 392.607 Q226.132 395.281 231.132 395.281 Q236.132 395.281 239.014 392.607 Q241.895 389.899 241.895 385.246 Q241.895 380.559 239.014 377.885 Q236.166 375.212 231.132 375.212 M224.118 372.226 Q219.604 371.115 217.069 368.024 Q214.569 364.934 214.569 360.49 Q214.569 354.274 218.979 350.663 Q223.423 347.052 231.132 347.052 Q238.875 347.052 243.284 350.663 Q247.694 354.274 247.694 360.49 Q247.694 364.934 245.159 368.024 Q242.659 371.115 238.18 372.226 Q243.25 373.406 246.062 376.844 Q248.909 380.281 248.909 385.246 Q248.909 392.781 244.291 396.809 Q239.708 400.837 231.132 400.837 Q222.555 400.837 217.937 396.809 Q213.354 392.781 213.354 385.246 Q213.354 380.281 216.201 376.844 Q219.048 373.406 224.118 372.226 M221.548 361.149 Q221.548 365.177 224.048 367.434 Q226.583 369.691 231.132 369.691 Q235.646 369.691 238.18 367.434 Q240.75 365.177 240.75 361.149 Q240.75 357.122 238.18 354.865 Q235.646 352.608 231.132 352.608 Q226.583 352.608 224.048 354.865 Q221.548 357.122 221.548 361.149 Z" fill="#000000" fill-rule="evenodd" fill-opacity="1" /><path clip-path="url(#clip030)" d="M149.361 143.489 L160.82 143.489 L160.82 103.941 L148.354 106.441 L148.354 100.052 L160.75 97.5521 L167.764 97.5521 L167.764 143.489 L179.222 143.489 L179.222 149.392 L149.361 149.392 L149.361 143.489 Z" fill="#000000" fill-rule="evenodd" fill-opacity="1" /><path clip-path="url(#clip030)" d="M193.389 140.573 L200.715 140.573 L200.715 149.392 L193.389 149.392 L193.389 140.573 Z" fill="#000000" fill-rule="evenodd" fill-opacity="1" /><path clip-path="url(#clip030)" d="M230.993 102.17 Q225.576 102.17 222.833 107.517 Q220.125 112.83 220.125 123.524 Q220.125 134.184 222.833 139.531 Q225.576 144.844 230.993 144.844 Q236.444 144.844 239.152 139.531 Q241.895 134.184 241.895 123.524 Q241.895 112.83 239.152 107.517 Q236.444 102.17 230.993 102.17 M230.993 96.6146 Q239.708 96.6146 244.291 103.524 Q248.909 110.399 248.909 123.524 Q248.909 136.614 244.291 143.524 Q239.708 150.399 230.993 150.399 Q222.278 150.399 217.659 143.524 Q213.076 136.614 213.076 123.524 Q213.076 110.399 217.659 103.524 Q222.278 96.6146 230.993 96.6146 Z" fill="#000000" fill-rule="evenodd" fill-opacity="1" /><path clip-path="url(#clip030)" d="M17.7939 761.222 Q19.6912 761.696 20.3763 762.697 L22.0627 766.597 Q22.0627 768.547 21.6411 768.758 Q20.5344 769.654 19.375 769.812 Q18.5318 769.812 18.0048 770.286 Q17.425 770.708 17.425 771.446 Q17.425 772.974 18.2156 773.923 Q20.0074 776.189 24.2234 777.612 Q27.7016 778.824 41.0876 782.249 L86.0938 793.264 L89.3085 799.324 Q71.1269 804.015 56.6869 808.968 Q42.1943 813.922 30.811 820.352 L47.7805 825.095 Q67.8594 831.419 70.3363 832.631 Q78.5576 836.373 83.8277 842.591 Q88.9923 848.757 88.9923 854.554 Q88.9923 858.296 86.7262 859.983 Q84.829 861.511 82.6156 860.931 Q80.5602 860.51 78.663 858.138 Q77.5563 856.662 77.5563 855.45 Q77.5563 853.553 78.5576 852.815 Q78.663 852.71 79.0319 852.552 Q79.4008 852.394 79.9278 852.183 Q80.4021 851.972 80.6656 851.867 Q82.194 851.234 82.194 849.179 Q82.194 845.806 79.19 842.064 Q78.0306 840.641 76.3442 839.429 Q74.6051 838.165 73.5511 837.638 Q72.4971 837.058 70.1255 835.898 Q63.7488 833.105 53.683 830.47 L25.7517 823.461 Q22.4843 825.991 20.9033 828.31 Q19.1642 830.892 19.1642 833 Q19.1642 836.952 21.4303 839.535 Q22.4843 840.905 24.2234 842.17 Q25.9625 843.382 27.1746 844.014 Q28.3867 844.647 30.6002 845.595 L31.1272 848.072 Q21.483 845.648 16.7926 839.904 Q12.8928 834.897 12.8928 828.31 Q12.8928 821.985 19.6912 817.084 Q21.8519 815.398 24.9085 813.817 Q27.9124 812.183 29.757 811.445 Q31.5488 810.655 35.554 809.021 L75.1848 794.687 L73.8673 793.58 L36.7661 785.253 Q30.1259 783.672 23.4856 780.51 Q18.1102 778.086 15.844 775.24 Q12.3658 770.971 12.3658 765.754 Q12.3658 763.33 13.9995 761.854 Q15.4751 760.695 17.7939 761.222 Z" fill="#000000" fill-rule="evenodd" fill-opacity="1" /><path clip-path="url(#clip030)" d="M61.5881 753.89 Q43.3537 753.89 28.6503 747.091 Q22.4843 744.193 17.3196 740.135 Q12.155 736.077 9.88887 733.389 Q7.62275 730.701 7.62275 729.963 Q7.62275 728.909 8.67676 728.857 Q9.20377 728.857 10.5213 730.28 Q28.2286 747.671 61.5881 747.618 Q95.0529 747.618 112.075 730.701 Q113.92 728.857 114.499 728.857 Q115.553 728.857 115.553 729.963 Q115.553 730.701 113.393 733.284 Q111.232 735.866 106.278 739.871 Q101.324 743.876 95.2637 746.775 Q80.5602 753.89 61.5881 753.89 Z" fill="#000000" fill-rule="evenodd" fill-opacity="1" /><path clip-path="url(#clip030)" d="M43.2483 687.508 Q44.7239 687.508 45.0928 688.193 Q45.409 688.878 45.409 690.775 L45.409 700.894 L77.2401 708.904 Q80.0332 709.537 82.4048 709.537 Q85.0398 709.537 86.1992 708.746 Q87.3586 707.903 87.3586 706.164 Q87.3586 702.738 84.2493 699.049 Q81.1399 695.308 73.5511 692.146 Q72.5498 691.724 72.339 691.513 Q72.0755 691.25 72.0755 690.565 Q72.0755 689.247 73.1295 689.247 Q73.4984 689.247 75.1848 689.985 Q76.8712 690.67 79.3481 692.198 Q81.8251 693.674 84.1439 695.624 Q86.4627 697.521 88.1491 700.42 Q89.7828 703.318 89.7828 706.427 Q89.7828 710.802 86.9897 713.595 Q84.1966 716.335 79.8224 716.335 Q78.3995 716.335 73.8673 715.228 Q69.2823 714.122 45.409 708.114 L45.409 717.653 Q45.409 718.97 45.3563 719.497 Q45.3036 719.971 45.0401 720.34 Q44.7239 720.657 44.0915 720.657 Q43.0902 720.657 42.6686 720.235 Q42.1943 719.813 42.1416 719.286 Q42.0362 718.707 42.0362 717.389 L42.0362 707.271 L24.9085 703.055 Q23.2221 702.633 22.2735 701.579 Q21.2722 700.472 21.1668 699.84 Q21.0087 699.207 21.0087 698.733 Q21.0087 697.31 21.7992 696.467 Q22.537 695.624 23.9072 695.624 Q24.645 695.624 42.0362 700.051 L42.0362 690.565 Q42.0362 689.352 42.0889 688.878 Q42.1416 688.351 42.4051 687.93 Q42.6686 687.508 43.2483 687.508 Z" fill="#000000" fill-rule="evenodd" fill-opacity="1" /><path clip-path="url(#clip030)" d="M114.499 679.062 Q113.972 679.062 112.655 677.692 Q94.9475 660.301 61.5881 660.301 Q28.1232 660.301 11.2064 677.007 Q9.25647 679.062 8.67676 679.062 Q7.62275 679.062 7.62275 678.008 Q7.62275 677.27 9.78347 674.688 Q11.9442 672.053 16.898 668.1 Q21.8519 664.095 27.9124 661.144 Q42.6159 654.029 61.5881 654.029 Q79.8224 654.029 94.5259 660.828 Q100.692 663.726 105.856 667.784 Q111.021 671.842 113.287 674.53 Q115.553 677.218 115.553 678.008 Q115.553 679.062 114.499 679.062 Z" fill="#000000" fill-rule="evenodd" fill-opacity="1" /><path clip-path="url(#clip030)" d="M1189.3 18.894 Q1189.3 19.6728 1188.97 20.0417 Q1188.64 20.3696 1188.27 20.4516 Q1187.9 20.4926 1187.04 20.4926 Q1185.28 20.4926 1184.34 20.6155 Q1183.39 20.7385 1182.82 21.2714 Q1182.25 21.7632 1182.04 22.2551 Q1181.88 22.747 1181.59 24.0176 L1171.75 63.2034 Q1170.24 69.2288 1164.74 73.1638 Q1159.25 77.0578 1153.23 77.0578 Q1148.31 77.0578 1145.19 74.4754 Q1142.12 71.8521 1142.12 67.9172 Q1142.12 65.9087 1142.77 64.4741 Q1143.43 63.0394 1144.41 62.3836 Q1145.4 61.7278 1146.22 61.4818 Q1147.08 61.1949 1147.77 61.1949 Q1149.13 61.1949 1150.27 62.0557 Q1151.46 62.9165 1151.46 64.72 Q1151.46 66.7285 1149.91 68.409 Q1148.35 70.0896 1146.01 70.0896 Q1145.23 70.0896 1144.99 70.0076 Q1145.6 72.0161 1147.2 73.2868 Q1148.8 74.5164 1150.19 74.8853 Q1151.63 75.2133 1152.98 75.2133 Q1156.5 75.2133 1160.07 71.8111 Q1163.64 68.409 1165.07 62.6295 L1174.7 24.0996 Q1175.03 22.788 1175.03 22.3371 Q1175.03 21.4763 1174.5 21.1894 Q1174.01 20.8615 1172.45 20.6565 Q1170.36 20.4926 1167.57 20.4926 Q1166.59 20.4926 1166.18 20.4926 Q1165.77 20.4516 1165.36 20.3696 Q1164.95 20.2876 1164.83 20.1237 Q1164.7 19.9187 1164.7 19.5498 Q1164.7 18.771 1165.03 18.4021 Q1165.36 17.9922 1165.65 17.9512 Q1165.93 17.8693 1166.46 17.8693 L1178.8 18.1152 Q1179.87 18.1152 1183.48 17.9922 Q1187.08 17.8693 1188.15 17.8693 Q1189.3 17.8693 1189.3 18.894 Z" fill="#000000" fill-rule="evenodd" fill-opacity="1" /><path clip-path="url(#clip030)" d="M1188.23 95.0111 Q1188.23 94.6012 1188.56 93.6994 L1218.2 14.5081 Q1218.2 14.4262 1218.4 13.9753 Q1218.61 13.5244 1218.73 13.2375 Q1218.85 12.9095 1219.1 12.6636 Q1219.39 12.4177 1219.71 12.4177 Q1220.53 12.4177 1220.53 13.4424 Q1220.53 13.5244 1220.29 14.5081 L1190.57 93.7814 Q1190.08 95.216 1189.75 95.6259 Q1189.46 96.0358 1188.97 96.0358 Q1188.23 96.0358 1188.23 95.0111 Z" fill="#000000" fill-rule="evenodd" fill-opacity="1" /><path clip-path="url(#clip030)" d="M1287.97 18.812 Q1287.97 20.4926 1286.57 20.4926 Q1284.12 20.5745 1282.43 21.0664 Q1280.75 21.5173 1279.77 22.4191 Q1278.83 23.3208 1278.29 24.3046 Q1277.8 25.2473 1277.48 26.6819 L1270.02 56.4811 Q1267.88 64.884 1261 70.9914 Q1254.11 77.0578 1246.28 77.0578 Q1241.81 77.0578 1238.08 75.2133 Q1234.4 73.3687 1232.1 69.6387 Q1229.8 65.9087 1229.8 60.949 Q1229.8 58.5716 1230.42 56.0713 L1235.5 35.3307 L1237.39 27.9526 Q1238.78 22.501 1238.78 22.0092 Q1238.78 21.2304 1238.29 21.0254 Q1237.84 20.7795 1236.53 20.6565 L1233.33 20.4926 Q1232.35 20.4926 1231.94 20.4516 Q1231.57 20.4106 1231.28 20.2056 Q1230.99 20.0007 1230.99 19.5498 Q1230.99 18.976 1231.12 18.6071 Q1231.28 18.1972 1231.57 18.0742 Q1231.85 17.9512 1232.06 17.9102 Q1232.26 17.8693 1232.59 17.8693 L1243.41 18.1152 L1254.15 17.8693 Q1255.34 17.8693 1255.34 18.812 Q1255.34 20.0007 1254.81 20.2466 Q1254.28 20.4926 1252.47 20.4926 Q1249.4 20.4926 1248 20.9025 Q1246.65 21.2714 1246.24 21.9272 Q1245.87 22.542 1245.42 24.3456 L1237.26 57.014 Q1236.85 58.6536 1236.61 60.2932 Q1236.4 61.8917 1236.4 62.7115 L1236.36 63.5313 Q1236.36 68.7369 1239.23 71.6062 Q1242.14 74.4754 1246.61 74.4754 Q1253.17 74.4754 1259.28 69.2698 Q1265.42 64.0642 1267.51 55.9073 L1275.06 25.9441 Q1275.3 25.2063 1275.3 24.1816 Q1275.3 22.542 1274.07 21.5583 Q1272.88 20.5336 1269.61 20.4926 Q1268.09 20.4926 1268.09 19.5498 Q1268.09 18.771 1268.38 18.4021 Q1268.7 17.9922 1268.95 17.9512 Q1269.24 17.8693 1269.61 17.8693 Q1271 17.8693 1273.95 17.9922 Q1276.9 18.1152 1278.34 18.1152 Q1279.77 18.1152 1282.64 17.9922 Q1285.51 17.8693 1286.9 17.8693 Q1287.39 17.8693 1287.64 18.1152 Q1287.93 18.3201 1287.97 18.5661 L1287.97 18.812 Z" fill="#000000" fill-rule="evenodd" fill-opacity="1" /><path clip-path="url(#clip030)" d="M1309.85 62.4656 Q1309.93 61.4409 1311.53 61.4409 L1362.97 61.4409 Q1365.39 61.4409 1365.43 62.3836 Q1365.43 63.4083 1363.13 63.3673 L1312.1 63.3673 Q1309.85 63.4083 1309.85 62.4656 M1309.85 46.0699 Q1309.85 45.0451 1311.61 45.0861 L1362.89 45.0861 Q1365.39 45.0861 1365.43 46.0699 Q1365.43 47.0126 1363.3 47.0126 L1311.53 47.0126 Q1309.85 47.0126 1309.85 46.0699 Z" fill="#000000" fill-rule="evenodd" fill-opacity="1" /><path clip-path="url(#clip030)" d="M1397.81 27.2968 L1397.81 24.6735 Q1407.89 24.6735 1413.1 19.3039 Q1414.53 19.3039 1414.78 19.6318 Q1415.02 19.9597 1415.02 21.4763 L1415.02 68.573 Q1415.02 71.0733 1416.25 71.8521 Q1417.48 72.6309 1422.85 72.6309 L1425.52 72.6309 L1425.52 75.2133 Q1422.57 74.9673 1411.91 74.9673 Q1401.25 74.9673 1398.34 75.2133 L1398.34 72.6309 L1401.01 72.6309 Q1406.29 72.6309 1407.56 71.8931 Q1408.83 71.1143 1408.83 68.573 L1408.83 25.0834 Q1404.45 27.2968 1397.81 27.2968 Z" fill="#000000" fill-rule="evenodd" fill-opacity="1" /><path clip-path="url(#clip030)" d="M1432.15 73.8606 Q1430.88 72.508 1430.88 70.7454 Q1430.88 68.9829 1432.15 67.7122 Q1433.42 66.4006 1435.35 66.4006 Q1437.19 66.4006 1438.42 67.6302 Q1439.69 68.8189 1439.69 70.7864 Q1439.69 72.7129 1438.34 73.9836 Q1437.03 75.2133 1435.35 75.2133 Q1433.42 75.2133 1432.15 73.8606 Z" fill="#000000" fill-rule="evenodd" fill-opacity="1" /><path clip-path="url(#clip030)" d="M1453.98 48.3653 Q1453.98 36.0275 1457.09 29.3053 Q1461.44 19.3039 1471.69 19.3039 Q1473.86 19.3039 1476.11 19.9187 Q1478.41 20.4926 1481.28 22.747 Q1484.19 25.0014 1485.95 28.6904 Q1489.31 35.8226 1489.31 48.3653 Q1489.31 60.6211 1486.2 67.3023 Q1481.65 77.0578 1471.6 77.0578 Q1467.83 77.0578 1463.98 75.1313 Q1460.17 73.2048 1457.75 68.573 Q1453.98 61.6458 1453.98 48.3653 M1460.95 47.3405 Q1460.95 60.0062 1461.85 65.0479 Q1462.87 70.4995 1465.66 72.8769 Q1468.49 75.2133 1471.6 75.2133 Q1474.96 75.2133 1477.75 72.7129 Q1480.58 70.1716 1481.44 64.72 Q1482.38 59.3504 1482.34 47.3405 Q1482.34 35.6586 1481.52 30.9858 Q1480.42 25.5342 1477.46 23.3618 Q1474.55 21.1484 1471.6 21.1484 Q1470.5 21.1484 1469.31 21.4763 Q1468.16 21.8042 1466.48 22.747 Q1464.8 23.6897 1463.49 26.0261 Q1462.22 28.3625 1461.6 31.8876 Q1460.95 36.4374 1460.95 47.3405 Z" fill="#000000" fill-rule="evenodd" fill-opacity="1" /></svg>
